<svg id="Capa_1" enable-background="new 0 0 512 512" height="512" viewBox="0 0 512 512" width="512" xmlns="http://www.w3.org/2000/svg"><g><g><path d="m84.525 27.554c0-11.067 8.972-20.039 20.039-20.039h247.929l93.119 93.119v383.813c0 11.067-8.972 20.039-20.039 20.039h-321.009c-11.067 0-20.039-8.972-20.039-20.039z" fill="#e6e2e6"/><path d="m382.171 440.417h-297.646v18.035h292.636c2.767 0 5.01-2.243 5.01-5.01z" fill="#d8d1d7"/><path d="m66.388 297.305h315.783v143.111h-315.783z" fill="#ff4755"/><path d="m66.388 422.381h315.783v18.035h-315.783z" fill="#fc2b3a"/><path d="m352.493 98.63c0 11.067 8.972 20.039 20.039 20.039h73.08v-18.035l-93.119-93.119z" fill="#d8d1d7"/><path d="m372.533 100.634h73.08l-93.12-93.119v73.08c0 11.067 8.972 20.039 20.04 20.039z" fill="#8c808a"/></g><g><path d="m189.196 416.518c4.15 0 7.515-3.386 7.515-7.536v-76.138c0-3.154-2.048-6.046-5.024-7.09-3.169-1.112-6.792.072-8.69 2.843l-19.895 29.041-19.895-29.041c-1.862-2.717-5.276-3.905-8.423-2.931-3.146.974-5.292 3.884-5.292 7.178v76.181c0 4.15 3.365 7.493 7.515 7.493s7.515-3.386 7.515-7.536v-51.872l12.381 18.072c2.934 4.283 9.465 4.283 12.399 0l12.38-18.071v51.915c-.001 4.149 3.364 7.492 7.514 7.492z"/><path d="m221.236 325.218c-4.15 0-7.515 3.365-7.515 7.515v43.625 32.667c0 4.15 3.365 7.515 7.515 7.515s7.515-3.364 7.515-7.515v-25.152h6.407c16.171 0 29.327-13.156 29.327-29.327s-13.156-29.327-29.327-29.327h-13.922zm28.22 29.327c0 7.884-6.414 14.298-14.298 14.298h-6.407v-28.596h6.407c7.885 0 14.298 6.414 14.298 14.298z"/><path d="m298.542 325.218c-14.661 0-26.588 11.927-26.588 26.588 0 4.15 3.365 7.515 7.515 7.515s7.515-3.365 7.515-7.515c0-6.373 5.185-11.558 11.558-11.558s11.559 5.185 11.559 11.558-5.185 11.558-11.559 11.558c-4.15 0-7.515 3.365-7.515 7.515s3.365 7.515 7.515 7.515c6.373 0 11.559 5.185 11.559 11.559s-5.185 11.558-11.559 11.558c-6.373 0-11.558-5.185-11.558-11.558 0-4.15-3.365-7.515-7.515-7.515s-7.515 3.365-7.515 7.515c0 14.66 11.927 26.587 26.588 26.587s26.588-11.927 26.588-26.587c0-7.475-3.1-14.238-8.082-19.073 4.982-4.835 8.082-11.599 8.082-19.073 0-14.662-11.927-26.589-26.588-26.589z"/><path d="m319.09 129.389c0-9.048-8.067-16.357-17.075-15.454l-71.966 7.195c-7.973.797-13.986 7.44-13.986 15.454v69.135c-3.072-1.362-6.465-2.133-10.035-2.154-.051 0-.101-.001-.152-.001-13.833 0-25.129 11.212-25.212 25.065-.082 13.745 11.319 25.283 25.064 25.365 13.72 0 25.365-11.281 25.365-25.109v-92.301c0-.259.194-.473.451-.499l71.966-7.195c.291-.029.55.206.55.499v67.519c-9.375-4.141-20.626-2.058-27.908 5.138-4.791 4.734-7.451 11.05-7.491 17.785-.083 13.903 11.161 25.281 25.064 25.364 13.72 0 25.364-11.281 25.364-25.109v-90.697zm-113.211 109.575c-.02 0-.041 0-.062-.001-5.616-.033-10.158-4.63-10.124-10.246.033-5.596 4.596-10.125 10.184-10.125h.062c5.615.033 10.158 4.63 10.124 10.246-.033 5.597-4.595 10.126-10.184 10.126zm87.998-8.798c-.021 0-.042 0-.063 0-5.616-.033-10.158-4.63-10.124-10.246.033-5.527 4.655-10.124 10.183-10.124 5.575 0 10.221 4.67 10.186 10.246-.032 5.528-4.654 10.124-10.182 10.124z"/><path d="m162.745 496.971h-58.18c-6.906 0-12.525-5.618-12.525-12.524v-36.515h290.131c4.15 0 7.515-3.365 7.515-7.515v-143.112c0-4.15-3.365-7.515-7.515-7.515h-61.806c-4.15 0-7.515 3.365-7.515 7.515s3.365 7.515 7.515 7.515h54.292v128.082h-300.754v-128.082h216.403c4.15 0 7.515-3.365 7.515-7.515s-3.365-7.515-7.515-7.515h-198.266v-262.236c0-6.906 5.618-12.524 12.525-12.524h58.18c4.15 0 7.515-3.365 7.515-7.515s-3.365-7.515-7.515-7.515h-58.18c-15.194 0-27.555 12.361-27.555 27.554v262.237h-10.622c-4.15 0-7.515 3.365-7.515 7.515v143.112c0 4.15 3.365 7.515 7.515 7.515h10.622v36.515c0 15.193 12.36 27.554 27.554 27.554h58.18c4.15 0 7.515-3.365 7.515-7.515 0-4.152-3.364-7.516-7.514-7.516z"/><path d="m453.089 99.883c-.169-1.71-.95-3.351-2.164-4.565l-93.117-93.116c-1.396-1.396-3.34-2.202-5.315-2.202h-159.69c-4.15 0-7.515 3.365-7.515 7.515s3.365 7.515 7.515 7.515h152.175v65.565c0 15.193 12.361 27.554 27.554 27.554h65.565v376.298c0 6.906-5.618 12.524-12.525 12.524h-232.77c-4.15 0-7.515 3.365-7.515 7.515s3.365 7.515 7.515 7.515h232.77c15.193 0 27.554-12.361 27.554-27.554v-383.813c.001-.252-.012-.502-.037-.751zm-93.081-19.289v-54.937l67.462 67.462h-54.938c-6.906 0-12.524-5.618-12.524-12.525z"/></g></g></svg>