<svg id="_x33_0" enable-background="new 0 0 62 62" height="512" viewBox="0 0 62 62" width="512" xmlns="http://www.w3.org/2000/svg"><g><g><path d="m39 27h-1.51v.001c-2.53 3.626-6.733 5.999-11.49 5.999-7.732 0-14-6.268-14-14s6.268-14 14-14c3.814 0 7.272 1.525 9.797 3.999v.001h6.127l.014-.353-.184-.271c-3.544-5.245-9.433-8.376-15.754-8.376-10.477 0-19 8.523-19 19s8.523 19 19 19c5.599 0 10.824-2.425 14.444-6.667z" fill="#f0bc5e"/></g><g><path d="m31.421 44.042c.359-.599.579-1.293.579-2.042 0-1.103-.897-2-2-2v-2.424c-.657.141-1.325.247-2 .318v2.106h-4v-2.107c-.679-.071-1.344-.183-2-.325v2.432h-2.169c-3.449 0-6.719 1.606-8.844 4.271-.293-.168-.627-.271-.987-.271h-10v14h10c.474 0 .904-.172 1.247-.449 1.982 1.584 4.421 2.449 6.996 2.449h3.942c.414 1.161 1.514 2 2.816 2h2c1.654 0 3-1.346 3-3v-1h1c1.654 0 3-1.346 3-3 0-.771-.301-1.468-.78-2 .48-.532.78-1.229.78-2s-.301-1.468-.78-2c.48-.532.78-1.229.78-2-.001-1.51-1.126-2.751-2.58-2.958zm-21.421 11.958h-8v-10h8zm22-9c0 .552-.449 1-1 1h-2c-.551 0-1-.448-1-1s.449-1 1-1h2c.551 0 1 .448 1 1zm0 4c0 .552-.449 1-1 1h-2c-.551 0-1-.448-1-1s.449-1 1-1h2c.551 0 1 .448 1 1zm-20 4.559v-9.25c1.697-2.659 4.668-4.309 7.831-4.309h10.169c0 1.103-.897 2-2 2h-3.618l-.276.553c-.525 1.051-1.428 1.834-2.543 2.206l-.879.293.633 1.896.683-.228v4.51c-1.057-.971-2.314-1.722-3.684-2.179l-.633 1.896c1.725.576 3.23 1.726 4.238 3.237l.079.119v1.697h-3.757c-2.336 0-4.534-.87-6.243-2.441zm15 4.441h-2c-.551 0-1-.448-1-1v-11.298c.623-.465 1.164-1.033 1.583-1.702h.601c-.112.314-.184.648-.184 1 0 .771.301 1.468.78 2-.48.532-.78 1.229-.78 2s.301 1.468.78 2c-.48.532-.78 1.229-.78 2 0 1.302.839 2.402 2 2.816v1.184c0 .552-.449 1-1 1zm4-4h-2c-.551 0-1-.448-1-1s.449-1 1-1h2c.551 0 1 .448 1 1s-.449 1-1 1z"/><path d="m59 8h-22.823c-2.781-2.575-6.372-4-10.177-4-8.271 0-15 6.729-15 15s6.729 15 15 15c4.717 0 9.142-2.243 11.972-6h.307l1.456 4.368c.326.977 1.236 1.632 2.265 1.632s1.939-.655 2.265-1.632l1.456-4.368h13.279c1.654 0 3-1.346 3-3v-14c0-1.654-1.346-3-3-3zm-33 24c-7.168 0-13-5.832-13-13s5.832-13 13-13c2.484 0 4.864.703 6.919 2h-8.919c-1.654 0-3 1.346-3 3v14c0 1.654 1.346 3 3 3h11.353c-2.433 2.524-5.796 4-9.353 4zm34-7c0 .552-.449 1-1 1h-14.721l-1.912 5.735c-.105.316-.63.316-.735 0l-1.911-5.735h-15.721c-.551 0-1-.448-1-1v-14c0-.552.449-1 1-1h35c.551 0 1 .448 1 1z"/><path d="m43 12h-4c-1.103 0-2 .897-2 2v8c0 1.103.897 2 2 2h4c1.103 0 2-.897 2-2v-8c0-1.103-.897-2-2-2zm-4 10v-8h4l.001 8z"/><path d="m33 14h-2v5h-3.557l2.494-6.648-1.874-.704-3.506 9.352h6.443v3h2v-3h2v-2h-2z"/><path d="m56 14h-2v5h-3.557l2.494-6.648-1.874-.704-3.506 9.352h6.443v3h2v-3h2v-2h-2z"/><path d="m41 52c-1.654 0-3 1.346-3 3s1.346 3 3 3 3-1.346 3-3-1.346-3-3-3zm0 4c-.551 0-1-.448-1-1s.449-1 1-1 1 .448 1 1-.449 1-1 1z"/><path d="m42 38h-2c-1.103 0-2 .897-2 2v8c0 1.103.897 2 2 2h2c1.103 0 2-.897 2-2v-8c0-1.103-.897-2-2-2zm-2 10v-8h2l.001 8z"/><path d="m49 52c-1.654 0-3 1.346-3 3s1.346 3 3 3 3-1.346 3-3-1.346-3-3-3zm0 4c-.551 0-1-.448-1-1s.449-1 1-1 1 .448 1 1-.449 1-1 1z"/><path d="m50 38h-2c-1.103 0-2 .897-2 2v8c0 1.103.897 2 2 2h2c1.103 0 2-.897 2-2v-8c0-1.103-.897-2-2-2zm-2 10v-8h2l.001 8z"/><path d="m57 52c-1.654 0-3 1.346-3 3s1.346 3 3 3 3-1.346 3-3-1.346-3-3-3zm0 4c-.551 0-1-.448-1-1s.449-1 1-1 1 .448 1 1-.449 1-1 1z"/><path d="m58 38h-2c-1.103 0-2 .897-2 2v8c0 1.103.897 2 2 2h2c1.103 0 2-.897 2-2v-8c0-1.103-.897-2-2-2zm-2 10v-8h2l.001 8z"/></g></g></svg>